<svg width="57" height="57" viewBox="0 0 57 57" fill="none" xmlns="http://www.w3.org/2000/svg">
<g clip-path="url(#clip0)">
<path d="M40.505 9C41.057 9 41.505 8.553 41.505 8V1C41.505 0.447 41.057 0 40.505 0C39.953 0 39.505 0.447 39.505 1V8C39.505 8.553 39.953 9 40.505 9ZM40.505 23C39.953 23 39.505 23.447 39.505 24V31C39.505 31.553 39.953 32 40.505 32C41.057 32 41.505 31.553 41.505 31V24C41.505 23.447 41.057 23 40.505 23ZM55.505 15H48.505C47.953 15 47.505 15.447 47.505 16C47.505 16.553 47.953 17 48.505 17H55.505C56.057 17 56.505 16.553 56.505 16C56.505 15.447 56.057 15 55.505 15ZM25.505 17H32.505C33.057 17 33.505 16.553 33.505 16C33.505 15.447 33.057 15 32.505 15H25.505C24.953 15 24.505 15.447 24.505 16C24.505 16.553 24.953 17 25.505 17ZM46.505 11C46.761 11 47.017 10.902 47.212 10.707L52.162 5.757C52.553 5.366 52.553 4.734 52.162 4.343C51.771 3.952 51.139 3.952 50.748 4.343L45.798 9.293C45.407 9.684 45.407 10.316 45.798 10.707C45.993 10.902 46.249 11 46.505 11ZM47.212 21.293C46.821 20.902 46.189 20.902 45.798 21.293C45.407 21.684 45.407 22.316 45.798 22.707L50.748 27.657C50.943 27.852 51.199 27.95 51.455 27.95C51.711 27.95 51.967 27.852 52.162 27.657C52.553 27.266 52.553 26.634 52.162 26.243L47.212 21.293ZM33.798 10.707C33.993 10.902 34.249 11 34.505 11C34.761 11 35.017 10.902 35.212 10.707C35.603 10.316 35.603 9.684 35.212 9.293L30.262 4.343C29.871 3.952 29.239 3.952 28.848 4.343C28.457 4.734 28.457 5.366 28.848 5.757L33.798 10.707ZM35.926 25.006L31.684 20.764L40.434 12.014L44.676 16.256L35.926 25.006ZM4.33602 56.599L0.0930176 52.356L30.27 22.179L34.513 26.422L4.33602 56.599Z" fill="black"/>
</g>
<defs>
<clipPath id="clip0">
<rect width="56.599" height="56.599" fill="white"/>
</clipPath>
</defs>
</svg>
