<svg width="41" height="41" viewBox="0 0 41 41" fill="none" xmlns="http://www.w3.org/2000/svg">
<path d="M5.99543 6.00185C13.9894 -1.99211 27.0007 -1.99211 34.9946 6.00185C38.8669 9.87566 41 15.025 41 20.5014C41 25.9778 38.8669 31.1272 34.9946 34.9995C30.9969 38.9972 25.7459 40.9953 20.4951 40.9953C15.2442 40.9953 9.99321 38.9972 5.99551 34.9995C-1.99845 27.0055 -1.99845 13.9973 5.99543 6.00185ZM8.24132 32.7536C14.998 39.5102 25.9922 39.5102 32.7488 32.7536C36.0207 29.4817 37.8234 25.1297 37.8234 20.5014C37.8234 15.8731 36.0207 11.5211 32.7488 8.24766C25.9922 1.491 14.998 1.4926 8.24132 8.24766C1.48627 15.0043 1.48627 25.9985 8.24132 32.7536Z" fill="black"/>
<path d="M13.6511 24.8907L18.1476 20.4006L13.6511 15.9105C13.0316 15.2911 13.0316 14.2857 13.6495 13.6646C14.2705 13.042 15.2759 13.0436 15.8969 13.663L20.3965 18.1563L24.8961 13.663C25.5171 13.0436 26.5225 13.042 27.1436 13.6646C27.763 14.2856 27.763 15.291 27.142 15.9105L22.6454 20.4006L27.142 24.8907C27.763 25.5101 27.763 26.5155 27.1436 27.1366C26.8338 27.4478 26.4256 27.6019 26.019 27.6019C25.6124 27.6019 25.2058 27.4462 24.8961 27.1381L20.3964 22.6448L15.8968 27.1381C15.587 27.4478 15.1805 27.6019 14.7738 27.6019C14.3672 27.6019 13.959 27.4462 13.6493 27.1366C13.03 26.5155 13.03 25.5101 13.6511 24.8907Z" fill="black"/>
</svg>
